<svg width="25" height="30" viewBox="0 0 25 30" fill="none" xmlns="http://www.w3.org/2000/svg">
<path d="M11.7647 29.4118C10.9559 29.4118 10.2635 29.1238 9.6875 28.5478C9.11152 27.9718 8.82353 27.2794 8.82353 26.4706H14.7059C14.7059 27.2794 14.4179 27.9718 13.8419 28.5478C13.2659 29.1238 12.5735 29.4118 11.7647 29.4118ZM0 25V22.0588H2.94118V11.7647C2.94118 9.73039 3.55392 7.92279 4.77941 6.34191C6.0049 4.76103 7.59804 3.72549 9.55882 3.23529V2.20588C9.55882 1.59314 9.77328 1.0723 10.2022 0.643382C10.6311 0.214461 11.152 0 11.7647 0C12.3775 0 12.8983 0.214461 13.3272 0.643382C13.7561 1.0723 13.9706 1.59314 13.9706 2.20588V2.68382C13.701 3.22304 13.5049 3.77451 13.3824 4.33823C13.2598 4.90196 13.2108 5.47794 13.2353 6.06618C12.9902 6.01716 12.7512 5.97426 12.5184 5.9375C12.2855 5.90073 12.0343 5.88235 11.7647 5.88235C10.1471 5.88235 8.76226 6.45833 7.61029 7.61029C6.45833 8.76225 5.88235 10.1471 5.88235 11.7647V22.0588H17.6471V12.6103C18.0882 12.8064 18.56 12.9596 19.0625 13.0699C19.565 13.1801 20.0735 13.2353 20.5882 13.2353V22.0588H23.5294V25H0ZM20.5882 10.2941C19.3627 10.2941 18.3211 9.8652 17.4632 9.00735C16.6054 8.14951 16.1765 7.10784 16.1765 5.88235C16.1765 4.65686 16.6054 3.6152 17.4632 2.75735C18.3211 1.89951 19.3627 1.47059 20.5882 1.47059C21.8137 1.47059 22.8554 1.89951 23.7132 2.75735C24.5711 3.6152 25 4.65686 25 5.88235C25 7.10784 24.5711 8.14951 23.7132 9.00735C22.8554 9.8652 21.8137 10.2941 20.5882 10.2941Z" fill="white"/>
</svg>
