<svg width="30" height="31" viewBox="0 0 30 31" fill="none" xmlns="http://www.w3.org/2000/svg">
<path d="M15.942 12.2305L13.913 10.0902L16.1957 7.64407H10.1449V4.58644H16.1957L13.8768 2.14034L15.942 0L21.7391 6.11526L15.942 12.2305ZM8.69565 30.5763C7.89855 30.5763 7.21618 30.2769 6.64855 29.6781C6.08092 29.0793 5.7971 28.3595 5.7971 27.5187C5.7971 26.6778 6.08092 25.958 6.64855 25.3592C7.21618 24.7604 7.89855 24.461 8.69565 24.461C9.49275 24.461 10.1751 24.7604 10.7428 25.3592C11.3104 25.958 11.5942 26.6778 11.5942 27.5187C11.5942 28.3595 11.3104 29.0793 10.7428 29.6781C10.1751 30.2769 9.49275 30.5763 8.69565 30.5763ZM23.1884 30.5763C22.3913 30.5763 21.7089 30.2769 21.1413 29.6781C20.5737 29.0793 20.2899 28.3595 20.2899 27.5187C20.2899 26.6778 20.5737 25.958 21.1413 25.3592C21.7089 24.7604 22.3913 24.461 23.1884 24.461C23.9855 24.461 24.6679 24.7604 25.2355 25.3592C25.8031 25.958 26.087 26.6778 26.087 27.5187C26.087 28.3595 25.8031 29.0793 25.2355 29.6781C24.6679 30.2769 23.9855 30.5763 23.1884 30.5763ZM0 3.05763V0H4.74638L10.9058 13.7593H21.0507L26.7029 3.05763H30L23.6232 15.2117C23.3575 15.7213 23.0012 16.1163 22.5543 16.3965C22.1075 16.6768 21.6184 16.817 21.087 16.817H10.2899L8.69565 19.8746H26.087V22.9322H8.69565C7.6087 22.9322 6.7814 22.4354 6.21377 21.4416C5.64613 20.4479 5.62802 19.4414 6.15942 18.4222L8.11594 14.6766L2.89855 3.05763H0Z" fill="white"/>
</svg>
