<svg width="514" height="514" viewBox="0 0 514 514" fill="none" xmlns="http://www.w3.org/2000/svg">
<path d="M256.625 0.687497C257.643 0.689652 258.661 0.691807 259.71 0.694028C274.319 0.743698 288.651 0.994595 303 4C303.975 4.19867 304.95 4.39735 305.954 4.60205C354.336 14.7227 398.324 36.6392 434 71C434.989 71.9482 434.989 71.9482 435.998 72.9155C445.486 82.06 454.226 91.3573 462 102C462.858 103.151 463.716 104.302 464.574 105.453C470.612 113.644 475.971 122.158 481 131C481.364 131.632 481.729 132.264 482.104 132.915C503.635 170.531 513.463 213.253 513.375 256.312C513.374 257.827 513.374 257.827 513.373 259.372C513.333 275.881 512.425 291.798 509 308C508.78 309.042 508.561 310.084 508.334 311.157C499.336 352.409 480.616 390.986 453 423C452.366 423.745 451.732 424.49 451.078 425.258C439.267 438.763 426.516 451.434 412 462C410.85 462.856 409.7 463.713 408.551 464.57C400.361 470.61 391.856 475.994 383 481C382.293 481.402 381.586 481.804 380.857 482.219C357.737 495.235 332.588 503.969 306.625 509.312C305.914 509.46 305.204 509.607 304.472 509.759C288.83 512.745 273.193 513.375 257.312 513.312C256.345 513.311 255.378 513.309 254.381 513.307C240.048 513.262 226.102 512.753 212 510C211.103 509.839 210.206 509.678 209.282 509.512C160.594 500.702 115.57 477.259 80 443C79.3407 442.368 78.6813 441.736 78.002 441.084C68.5137 431.94 59.7738 422.643 52 412C51.1419 410.849 50.2839 409.698 49.4258 408.547C43.3876 400.356 38.0291 391.842 33 383C32.6355 382.368 32.271 381.736 31.8955 381.085C16.9642 354.998 7.49081 325.665 3.00001 296C2.82268 294.881 2.64536 293.762 2.46265 292.61C0.781245 280.888 0.642665 269.265 0.687508 257.437C0.690741 255.907 0.690741 255.907 0.694039 254.345C0.743675 239.718 0.990811 225.367 4.00001 211C4.19869 210.025 4.39736 209.05 4.60206 208.046C14.7227 159.664 36.6392 115.676 71 80C71.6321 79.3406 72.2643 78.6813 72.9155 78.002C82.06 68.5137 91.3573 59.7738 102 52C103.151 51.1419 104.302 50.2839 105.453 49.4258C113.643 43.3882 122.145 38.0054 131 33C131.707 32.5978 132.414 32.1956 133.143 31.7812C156.278 18.7558 181.45 10.007 207.438 4.6875C208.156 4.54014 208.875 4.39278 209.616 4.24096C225.262 1.26711 240.736 0.626993 256.625 0.687497Z" fill="#1877F2"/>
<path d="M314.938 100.75C315.945 100.754 315.945 100.754 316.972 100.757C329.062 100.809 340.995 101.571 353 103C354.611 103.181 356.221 103.362 357.832 103.543C368.587 104.794 368.587 104.794 371 106C371 126.79 371 147.58 371 169C351.312 169.25 351.312 169.25 345.185 169.298C331.354 169.502 318.033 170.788 307.324 180.523C300.571 187.662 297.947 197.066 297.795 206.708C297.774 207.845 297.754 208.981 297.734 210.152C297.717 211.335 297.701 212.519 297.684 213.738C297.656 215.382 297.656 215.382 297.627 217.059C297.559 221.143 297.499 225.228 297.438 229.312C297.293 238.449 297.149 247.586 297 257C320.43 257 343.86 257 368 257C366.875 269.375 366.875 269.375 366.076 274.386C365.811 276.067 365.811 276.067 365.54 277.783C365.352 278.954 365.163 280.125 364.969 281.332C364.675 283.185 364.675 283.185 364.375 285.076C363.858 288.327 363.339 291.578 362.818 294.829C362.288 298.135 361.764 301.441 361.238 304.748C358.373 322.763 358.373 322.763 357 331C337.2 331 317.4 331 297 331C297 390.4 297 449.8 297 511C276.251 513.305 276.251 513.305 268.215 513.266C267.304 513.268 266.393 513.269 265.455 513.271C263.562 513.273 261.67 513.269 259.777 513.261C256.936 513.25 254.096 513.261 251.256 513.273C240.083 513.282 229.032 512.907 218 511C217 510 217 510 216.877 507.081C216.878 505.762 216.879 504.443 216.88 503.084C216.879 502.352 216.878 501.621 216.877 500.867C216.876 498.396 216.881 495.925 216.886 493.455C216.887 491.691 216.887 489.927 216.886 488.164C216.886 483.36 216.892 478.557 216.899 473.753C216.905 468.739 216.905 463.725 216.907 458.711C216.91 449.209 216.918 439.707 216.928 430.204C216.939 419.39 216.945 408.575 216.95 397.76C216.96 375.507 216.978 353.253 217 331C195.55 331 174.1 331 152 331C152 306.58 152 282.16 152 257C173.45 257 194.9 257 217 257C216.948 249.625 216.948 249.625 216.895 242.102C216.879 238.948 216.865 235.794 216.854 232.641C216.836 227.658 216.815 222.675 216.774 217.692C216.741 213.666 216.723 209.639 216.715 205.613C216.71 204.092 216.699 202.572 216.683 201.052C216.536 186.919 217.68 172.367 222.812 159.062C223.071 158.366 223.33 157.67 223.596 156.953C230.704 138.357 243.601 122.795 261 113C261.777 112.55 262.555 112.1 263.355 111.637C279.375 102.969 296.972 100.621 314.938 100.75Z" fill="#FEFEFE"/>
</svg>
