<svg width="513" height="513" viewBox="0 0 513 513" fill="none" xmlns="http://www.w3.org/2000/svg">
<path d="M256.129 0.00151972C257.114 0.00206354 258.1 0.00260737 259.116 0.00316767C318.577 0.153424 374.169 21.0383 420.316 58.3765C419.116 61.9784 417.918 62.7196 414.941 65.0015C414.035 65.7066 413.129 66.4118 412.195 67.1382C411.245 67.8769 410.295 68.6155 409.316 69.3765C407.499 70.8497 405.686 72.3289 403.879 73.814C402.962 74.5655 402.046 75.3171 401.101 76.0914C400.182 76.8455 399.263 77.5996 398.316 78.3765C396.483 79.8768 394.65 81.3768 392.816 82.8765C391.909 83.619 391.001 84.3615 390.066 85.1265C359.816 109.877 359.816 109.877 357.09 112.107C355.178 113.672 353.266 115.237 351.355 116.802C350.394 117.59 349.432 118.378 348.441 119.189C347.577 119.897 346.714 120.604 345.824 121.334C344.583 122.345 344.583 122.345 343.316 123.377C342.489 124.144 341.661 124.911 340.808 125.701C338.316 127.377 338.316 127.377 335.918 127.353C332.65 126.127 329.705 124.487 326.691 122.752C292.014 103.638 250.713 101.062 212.964 111.579C174.805 123.076 142.886 149.261 123.579 184.003C104.004 220.656 100.365 262.711 112.316 302.377C125.426 341.95 153.128 373.721 190.312 392.498C225.973 409.681 267.434 411.932 304.937 399.508C334.355 389.065 360.031 370.758 378.316 345.377C378.751 344.78 379.185 344.183 379.633 343.568C386.977 333.374 393.326 322.345 397.316 310.377C352.436 310.377 307.556 310.377 261.316 310.377C261.316 276.717 261.316 243.057 261.316 208.377C342.826 208.377 424.336 208.377 508.316 208.377C510.608 220.602 512.459 231.301 512.519 243.509C512.526 244.456 512.533 245.402 512.541 246.377C512.769 285.893 512.769 285.893 509.316 302.377C509.018 303.839 509.018 303.839 508.714 305.331C498.593 353.713 476.677 397.701 442.316 433.377C441.684 434.036 441.052 434.695 440.401 435.375C431.256 444.863 421.959 453.603 411.316 461.377C410.165 462.235 409.014 463.093 407.863 463.951C399.673 469.988 391.171 475.371 382.316 480.377C381.609 480.779 380.902 481.181 380.173 481.595C353.97 496.348 325.03 505.882 295.316 510.377C294.191 510.554 293.065 510.731 291.906 510.914C280.373 512.562 268.953 512.734 257.316 512.689C256.321 512.687 255.326 512.685 254.301 512.682C239.456 512.631 224.919 512.306 210.316 509.377C209.324 509.178 208.332 508.979 207.31 508.774C164.076 499.784 123.845 481.299 90.3161 452.377C89.571 451.742 88.826 451.108 88.0583 450.455C74.5533 438.644 61.8819 425.893 51.3161 411.377C50.4596 410.227 49.6029 409.077 48.7458 407.927C42.7058 399.737 37.3224 391.233 32.3161 382.377C31.9139 381.669 31.5117 380.962 31.0974 380.233C18.41 357.699 9.95664 333.434 4.56612 308.189C4.36729 307.264 4.16845 306.339 3.96359 305.387C0.671711 289.18 -0.0591836 273.246 0.00362488 256.752C0.00578003 255.734 0.00793518 254.716 0.0101556 253.667C0.0598263 239.058 0.310723 224.726 3.31612 210.377C3.5148 209.402 3.71348 208.427 3.91818 207.422C11.6413 170.502 25.986 135.864 48.3161 105.377C48.7322 104.804 49.1482 104.231 49.5769 103.64C55.8994 94.9862 62.8769 87.082 70.3161 79.3765C71.2899 78.3619 71.2899 78.3619 72.2834 77.3267C81.4128 67.8571 90.6925 59.1364 101.316 51.3765C102.467 50.5185 103.618 49.6604 104.769 48.8023C112.959 42.7647 121.462 37.3819 130.316 32.3765C131.023 31.9743 131.731 31.5721 132.459 31.1578C158.606 16.4368 187.628 6.73587 217.316 2.37652C218.519 2.19992 219.721 2.02332 220.96 1.84136C232.676 0.237376 244.315 -0.0231137 256.129 0.00151972Z" fill="#508EF7"/>
<path d="M256.129 0.00151972C257.115 0.00206354 258.1 0.00260737 259.116 0.00316767C318.577 0.153424 374.169 21.0383 420.316 58.3765C419.116 61.9784 417.918 62.7196 414.941 65.0015C414.035 65.7066 413.129 66.4118 412.195 67.1382C411.245 67.8769 410.295 68.6155 409.316 69.3765C407.499 70.8497 405.686 72.3289 403.879 73.814C402.962 74.5655 402.046 75.3171 401.101 76.0914C400.182 76.8455 399.263 77.5996 398.316 78.3765C396.483 79.8768 394.65 81.3768 392.816 82.8765C391.909 83.619 391.001 84.3615 390.066 85.1265C359.816 109.877 359.816 109.877 357.09 112.107C355.178 113.672 353.266 115.237 351.355 116.802C350.394 117.59 349.432 118.378 348.441 119.189C347.578 119.897 346.714 120.604 345.824 121.334C344.583 122.345 344.583 122.345 343.316 123.377C342.489 124.144 341.661 124.911 340.808 125.701C338.316 127.377 338.316 127.377 335.918 127.353C332.651 126.127 329.705 124.487 326.691 122.752C292.014 103.638 250.713 101.062 212.964 111.579C174.805 123.076 142.886 149.261 123.579 184.003C103.424 221.742 101.838 261.637 112.316 302.377C112.986 305.042 113.651 307.709 114.316 310.377C113.456 311.043 112.597 311.709 111.711 312.396C104.999 317.622 98.3958 322.941 91.9261 328.464C88.0374 331.78 84.0846 334.997 80.0818 338.173C70.8101 345.559 61.652 353.089 52.5037 360.627C51.4378 361.503 51.4378 361.503 50.3504 362.397C47.1998 364.99 44.0564 367.589 40.9412 370.224C39.9718 371.038 39.0025 371.851 38.0037 372.689C36.772 373.735 36.772 373.735 35.5154 374.802C33.3322 376.365 31.891 376.821 29.3162 377.377C15.0338 349.167 5.34711 319.782 1.31622 288.377C1.22889 287.709 1.14156 287.042 1.05159 286.355C0.355344 280.638 0.141657 274.999 0.113093 269.244C0.102504 267.824 0.102504 267.824 0.0917006 266.376C-0.136193 226.86 -0.136193 226.86 3.31622 210.377C3.5149 209.402 3.71357 208.427 3.91827 207.422C11.6414 170.502 25.9861 135.864 48.3162 105.377C48.7323 104.804 49.1483 104.231 49.577 103.64C55.8995 94.9862 62.877 87.082 70.3162 79.3765C71.29 78.3619 71.29 78.3619 72.2835 77.3267C81.4129 67.8571 90.6926 59.1364 101.316 51.3765C102.467 50.5185 103.618 49.6604 104.769 48.8023C112.959 42.7647 121.462 37.3819 130.316 32.3765C131.023 31.9743 131.731 31.5721 132.459 31.1578C158.606 16.4368 187.628 6.73587 217.316 2.37652C218.519 2.19992 219.721 2.02332 220.96 1.84136C232.676 0.237376 244.315 -0.0231137 256.129 0.00151972Z" fill="#F14335"/>
<path d="M115.316 310.377C115.717 311.358 116.118 312.338 116.531 313.349C132.137 350.733 161.156 380.781 198.851 396.287C238.628 411.942 280.962 410.35 320.052 393.466C323.268 391.918 326.277 390.056 329.282 388.134C331.316 387.377 331.316 387.377 333.44 388.142C335.697 389.627 337.784 391.231 339.879 392.939C341.197 394.01 341.197 394.01 342.543 395.103C343.916 396.228 343.916 396.228 345.316 397.377C346.211 398.106 347.105 398.836 348.027 399.587C350.793 401.846 353.555 404.111 356.316 406.377C358.149 407.877 359.983 409.377 361.816 410.877C378.316 424.377 378.316 424.377 394.816 437.877C396.166 438.981 396.166 438.981 397.543 440.107C399.455 441.672 401.366 443.237 403.277 444.802C404.239 445.59 405.2 446.378 406.191 447.189C407.055 447.897 407.919 448.604 408.808 449.334C411.299 451.363 413.804 453.373 416.316 455.377C414.978 458.486 413.695 460.139 410.929 462.076C410.246 462.558 409.563 463.04 408.86 463.537C408.123 464.041 407.387 464.545 406.629 465.064C405.864 465.594 405.1 466.123 404.312 466.669C397.164 471.571 389.868 476.126 382.316 480.377C381.613 480.776 380.91 481.175 380.186 481.586C353.979 496.343 325.036 505.881 295.316 510.377C294.191 510.554 293.065 510.731 291.906 510.914C280.373 512.562 268.953 512.734 257.316 512.689C256.321 512.687 255.326 512.685 254.301 512.682C239.456 512.631 224.919 512.306 210.316 509.377C209.324 509.178 208.332 508.979 207.31 508.774C164.076 499.784 123.845 481.299 90.3162 452.377C89.1985 451.425 89.1985 451.425 88.0583 450.455C74.5534 438.644 61.882 425.893 51.3162 411.377C50.4597 410.227 49.6029 409.077 48.7458 407.927C44.3037 401.901 40.1844 395.724 36.3162 389.314C35.9422 388.695 35.5682 388.075 35.1829 387.437C33.2521 384.171 31.6111 380.944 30.3162 377.377C31.5885 376.394 31.5885 376.394 32.8865 375.392C39.1552 370.525 45.3233 365.581 51.3162 360.377C56.4701 355.902 61.7438 351.633 67.1365 347.451C71.1149 344.353 74.9873 341.156 78.8162 337.877C83.7916 333.615 88.8813 329.535 94.0615 325.526C97.0976 323.163 100.073 320.755 102.984 318.24C103.871 317.474 103.871 317.474 104.775 316.693C105.903 315.711 107.026 314.723 108.142 313.728C111.99 310.377 111.99 310.377 115.316 310.377Z" fill="#28B446"/>
<path d="M28.3162 138.377C34.8432 143.145 41.0819 148.234 47.3162 153.377C49.1489 154.877 50.9822 156.377 52.8162 157.877C69.3162 171.377 69.3162 171.377 85.8162 184.877C86.7224 185.618 87.6286 186.359 88.5623 187.123C90.4096 188.635 92.2559 190.148 94.1014 191.662C95.0179 192.413 95.9344 193.165 96.8787 193.939C97.772 194.68 98.6654 195.421 99.5857 196.185C101.436 197.67 103.332 199.099 105.265 200.474C106.652 201.478 106.652 201.478 108.066 202.502C109.327 203.372 109.327 203.372 110.613 204.259C112.316 206.377 112.316 206.377 112.203 209.599C111.91 210.846 111.618 212.092 111.316 213.377C111.17 214.023 111.025 214.67 110.874 215.336C110.561 216.719 110.238 218.099 109.907 219.477C103.115 247.913 105.092 274.287 112.316 302.377C112.986 305.042 113.651 307.709 114.316 310.377C113.456 311.043 112.597 311.709 111.711 312.396C104.999 317.622 98.3958 322.941 91.9261 328.464C88.0374 331.78 84.0846 334.997 80.0818 338.173C70.8101 345.559 61.652 353.089 52.5037 360.627C51.4378 361.503 51.4378 361.503 50.3504 362.397C47.1998 364.99 44.0564 367.589 40.9412 370.224C39.9718 371.038 39.0025 371.851 38.0037 372.689C36.772 373.735 36.772 373.735 35.5154 374.802C33.3322 376.365 31.891 376.821 29.3162 377.377C15.0338 349.167 5.34711 319.782 1.31622 288.377C1.18523 287.376 1.18523 287.376 1.05159 286.355C0.355344 280.638 0.141657 274.999 0.113093 269.244C0.106034 268.297 0.0989742 267.351 0.0917006 266.376C-0.136193 226.86 -0.136193 226.86 3.31622 210.377C3.5149 209.402 3.71357 208.427 3.91827 207.422C8.72925 184.423 15.1123 158.182 28.3162 138.377Z" fill="#FABA00"/>
</svg>
