<svg width="40" height="42" viewBox="0 0 40 42" fill="none" xmlns="http://www.w3.org/2000/svg">
<rect width="40" height="42" rx="6" fill="#7A21C8"/>
<path d="M12.3824 11.6778C12.1275 11.8926 11.8725 12.1074 11.6176 12.3222C11.4382 13.0146 11.2793 13.6896 11.141 14.3473C9.7773 20.8305 10.4097 25.6317 13.0381 28.7511C15.2096 31.3282 19.302 32.2867 25.3153 31.6267C26.0537 31.5456 26.8211 31.4401 27.6175 31.3103C27.8724 31.0955 28.1273 30.8807 28.3822 30.6659C28.6452 29.9031 28.8793 29.1647 29.0844 28.4507C30.7546 22.6365 30.5039 18.4408 28.3324 15.8637C25.704 12.7444 21.0795 11.307 14.459 11.5515C13.7873 11.5763 13.0951 11.6184 12.3824 11.6778Z" fill="#1E293B"/>
</svg>
