<svg width="514" height="514" viewBox="0 0 514 514" fill="none" xmlns="http://www.w3.org/2000/svg">
<path d="M256.625 0.687497C257.643 0.689652 258.661 0.691807 259.71 0.694028C274.319 0.743698 288.651 0.994595 303 4C303.975 4.19867 304.95 4.39735 305.954 4.60205C354.336 14.7227 398.324 36.6392 434 71C434.989 71.9482 434.989 71.9482 435.998 72.9155C445.486 82.06 454.226 91.3573 462 102C462.858 103.151 463.716 104.302 464.574 105.453C470.612 113.644 475.971 122.158 481 131C481.364 131.632 481.729 132.264 482.104 132.915C503.71 170.663 513.477 213.429 513.312 256.625C513.31 257.643 513.308 258.661 513.306 259.71C513.256 274.319 513.005 288.651 510 303C509.702 304.462 509.702 304.462 509.398 305.954C499.277 354.336 477.361 398.324 443 434C442.368 434.659 441.736 435.319 441.084 435.998C431.94 445.486 422.643 454.226 412 462C410.849 462.858 409.698 463.716 408.547 464.574C400.357 470.612 391.855 475.995 383 481C382.293 481.402 381.586 481.804 380.857 482.219C357.722 495.244 332.55 503.993 306.562 509.312C305.844 509.46 305.125 509.607 304.384 509.759C289.708 512.548 275.183 513.349 260.273 513.316C257.333 513.313 254.395 513.336 251.455 513.361C238.082 513.406 225.186 512.201 212 510C210.294 509.718 210.294 509.718 208.554 509.43C165.287 501.658 124.237 481.671 91 453C90.2549 452.366 89.5099 451.732 88.7422 451.078C75.2372 439.267 62.5658 426.516 52 412C51.1435 410.85 50.2867 409.7 49.4297 408.551C43.3897 400.361 38.0063 391.856 33 383C32.5978 382.293 32.1956 381.586 31.7813 380.857C18.7558 357.722 10.007 332.55 4.68751 306.562C4.54016 305.844 4.3928 305.125 4.24098 304.384C1.26712 288.738 0.627008 273.264 0.687512 257.375C0.689667 256.357 0.691822 255.339 0.694043 254.29C0.743714 239.681 0.99461 225.349 4.00001 211C4.19869 210.025 4.39737 209.05 4.60206 208.046C14.7227 159.664 36.6392 115.676 71 80C71.6321 79.3406 72.2643 78.6813 72.9155 78.002C82.06 68.5137 91.3574 59.7738 102 52C103.151 51.1419 104.302 50.2839 105.453 49.4258C113.643 43.3882 122.145 38.0054 131 33C131.707 32.5978 132.414 32.1956 133.143 31.7812C156.278 18.7558 181.45 10.007 207.438 4.6875C208.156 4.54014 208.875 4.39278 209.616 4.24096C225.262 1.26711 240.736 0.626993 256.625 0.687497Z" fill="black"/>
<path d="M110 106C121.3 105.652 132.599 105.386 143.903 105.223C149.153 105.145 154.4 105.039 159.648 104.868C164.719 104.705 169.786 104.616 174.859 104.577C176.789 104.549 178.718 104.495 180.645 104.414C195.35 103.819 195.35 103.819 199.777 107.462C202.894 111.018 205.082 114.959 207.111 119.209C208.326 121.657 209.845 123.84 211.434 126.059C211.931 126.785 212.429 127.512 212.942 128.26C213.435 128.979 213.929 129.697 214.438 130.438C214.983 131.233 215.528 132.028 216.089 132.847C217.725 135.232 219.362 137.616 221 140C221.486 140.708 221.973 141.417 222.474 142.146C225.2 146.115 227.928 150.082 230.657 154.048C232.939 157.365 235.219 160.683 237.5 164C238.417 165.333 239.333 166.667 240.25 168C242.083 170.667 243.917 173.333 245.75 176C246.204 176.66 246.658 177.321 247.126 178.001C248.04 179.331 248.954 180.661 249.868 181.991C252.195 185.376 254.523 188.76 256.855 192.141C262.307 200.049 267.703 207.987 273 216C280.768 208.315 287.925 200.183 294.785 191.684C297.665 188.194 300.707 184.87 303.754 181.527C306.062 178.93 308.256 176.266 310.438 173.562C314.297 168.79 318.372 164.269 322.527 159.754C325.747 156.168 328.759 152.433 331.785 148.684C334.665 145.194 337.707 141.87 340.754 138.527C343.062 135.93 345.256 133.266 347.438 130.562C351.29 125.794 355.35 121.272 359.543 116.801C361.962 114.242 361.962 114.242 363.165 111.906C364.601 109.469 365.798 107.79 368 106C372.494 105.014 376.802 105.242 381.375 105.5C383.195 105.554 383.195 105.554 385.051 105.609C388.037 105.703 391.017 105.835 394 106C392.737 108.715 391.396 110.9 389.418 113.145C388.648 114.024 388.648 114.024 387.863 114.922C387.034 115.858 387.034 115.858 386.188 116.813C385.005 118.161 383.823 119.51 382.641 120.859C382.035 121.547 381.43 122.235 380.807 122.943C378.002 126.137 375.219 129.349 372.438 132.562C371.9 133.182 371.363 133.802 370.81 134.44C365.18 140.938 359.588 147.467 354 154C347.311 161.819 340.603 169.621 333.858 177.392C328.708 183.329 323.593 189.295 318.484 195.266C315.495 198.758 312.503 202.247 309.511 205.737C306.947 208.727 304.385 211.718 301.824 214.711C296.582 220.836 291.333 226.953 286 233C287.756 236.835 290.088 240.263 292.438 243.75C292.878 244.407 293.318 245.064 293.772 245.74C298.331 252.525 302.965 259.258 307.609 265.984C309.91 269.319 312.205 272.66 314.5 276C315.419 277.337 316.339 278.675 317.258 280.012C317.712 280.672 318.166 281.333 318.634 282.013C319.982 283.974 321.331 285.934 322.68 287.895C328.185 295.897 333.676 303.909 339.159 311.926C343.98 318.975 348.816 326.013 353.657 333.048C355.939 336.365 358.219 339.683 360.5 343C361.417 344.333 362.333 345.667 363.25 347C368.75 355 374.25 363 379.75 371C380.204 371.661 380.658 372.321 381.126 373.002C382.038 374.329 382.95 375.655 383.862 376.982C386.223 380.419 388.588 383.852 390.961 387.281C391.449 387.988 391.937 388.694 392.439 389.422C393.361 390.756 394.284 392.09 395.209 393.422C397.435 396.648 399.587 399.904 401.657 403.232C402.098 403.941 402.54 404.65 402.994 405.381C403.326 405.915 403.658 406.449 404 407C392.735 407.395 381.471 407.697 370.2 407.881C364.965 407.969 359.735 408.089 354.503 408.282C349.445 408.468 344.392 408.569 339.331 408.613C337.408 408.644 335.486 408.705 333.566 408.797C318.945 409.472 318.945 409.472 314.026 405.344C310.409 401.292 307.684 396.806 305.119 392.036C303.606 389.283 301.828 386.749 300.004 384.195C298.855 382.506 297.708 380.816 296.562 379.125C295.288 377.25 294.013 375.375 292.738 373.5C292.114 372.581 291.49 371.662 290.846 370.715C287.989 366.513 285.12 362.318 282.25 358.125C281.718 357.347 281.186 356.57 280.637 355.769C275.882 348.823 271.114 341.886 266.343 334.952C263.606 330.974 260.871 326.994 258.135 323.015C255.784 319.593 253.43 316.173 251.074 312.754C250.112 311.357 249.15 309.96 248.188 308.562C247.727 307.895 247.267 307.228 246.793 306.541C243.833 302.239 240.934 297.903 238.121 293.504C237.057 291.841 237.057 291.841 235 291C234.764 291.556 234.528 292.111 234.285 292.684C232.687 295.564 230.695 297.664 228.438 300.062C224.966 303.796 221.641 307.592 218.438 311.562C215.552 315.138 212.596 318.604 209.5 322C206.385 325.417 203.408 328.905 200.5 332.5C196.889 336.964 193.113 341.23 189.246 345.473C186.938 348.07 184.744 350.734 182.562 353.438C178.703 358.21 174.628 362.731 170.473 367.246C167.253 370.832 164.241 374.567 161.215 378.316C158.342 381.798 155.307 385.115 152.266 388.449C149.097 392.017 146.116 395.727 143.141 399.457C142.434 400.296 141.728 401.135 141 402C140.352 402.926 139.703 403.851 139.035 404.805C134.142 408.344 129.051 407.526 123.188 407.313C122.018 407.29 120.848 407.267 119.643 407.244C116.76 407.185 113.881 407.103 111 407C112.618 403.592 114.478 401.205 117.062 398.438C120.33 394.877 123.465 391.261 126.5 387.5C130.111 383.036 133.887 378.77 137.754 374.527C140.062 371.93 142.256 369.266 144.438 366.563C148.297 361.79 152.372 357.269 156.527 352.754C159.747 349.168 162.759 345.433 165.785 341.684C168.665 338.194 171.707 334.87 174.754 331.527C177.062 328.93 179.256 326.266 181.438 323.562C185.297 318.79 189.372 314.269 193.527 309.754C196.747 306.168 199.759 302.433 202.785 298.684C204.956 296.053 207.202 293.521 209.5 291C211.002 289.336 212.502 287.669 214 286C214.859 285.045 215.717 284.09 216.602 283.105C217.434 282.143 218.267 281.18 219.125 280.188C219.891 279.315 220.656 278.442 221.445 277.543C223.234 275.134 223.234 275.134 222.938 272.453C221.896 269.727 220.67 267.867 218.875 265.562C214.634 259.928 210.646 254.149 206.688 248.312C205.374 246.379 204.06 244.445 202.746 242.512C202.109 241.574 201.472 240.636 200.816 239.669C198.306 235.98 195.781 232.301 193.25 228.625C192.811 227.986 192.371 227.348 191.918 226.69C191.046 225.423 190.174 224.157 189.302 222.89C182.465 212.963 175.645 203.024 168.841 193.074C164.02 186.025 159.184 178.987 154.343 171.952C152.061 168.635 149.781 165.317 147.5 162C146.583 160.667 145.667 159.333 144.75 158C139.25 150 139.25 150 137.875 148C136.959 146.668 136.043 145.336 135.127 144.004C132.819 140.649 130.514 137.291 128.215 133.93C127.289 132.578 126.363 131.226 125.438 129.875C124.989 129.22 124.541 128.565 124.079 127.89C121.784 124.55 119.461 121.236 117.086 117.953C116.62 117.309 116.154 116.664 115.674 116C114.786 114.777 113.893 113.556 112.996 112.339C110 108.218 110 108.218 110 106Z" fill="#FBFBFB"/>
<path d="M145 126C150.531 125.702 156.058 125.485 161.595 125.341C163.475 125.281 165.354 125.199 167.231 125.095C182.743 124.255 182.743 124.255 188.023 128.338C190.367 131.441 192.185 134.564 194 138C195.271 139.851 196.566 141.685 197.887 143.5C199.156 145.332 200.423 147.165 201.688 149C203.084 151.017 204.482 153.034 205.879 155.051C206.57 156.049 207.261 157.048 207.973 158.077C211.01 162.457 214.066 166.823 217.125 171.188C217.694 172 218.264 172.813 218.85 173.65C219.994 175.283 221.138 176.916 222.282 178.548C225.775 183.533 229.265 188.521 232.755 193.507C235.645 197.637 238.537 201.766 241.43 205.895C248.317 215.725 255.183 225.57 262.034 235.426C268.098 244.147 274.187 252.85 280.282 261.548C283.19 265.698 286.095 269.849 289 274C290.167 275.667 291.333 277.333 292.5 279C294.833 282.333 297.167 285.667 299.5 289C300.077 289.825 300.655 290.65 301.25 291.499C302.418 293.168 303.586 294.837 304.754 296.507C307.645 300.637 310.537 304.766 313.43 308.895C320.317 318.725 327.183 328.57 334.034 338.426C338.388 344.687 342.751 350.941 347.125 357.188C347.685 357.988 348.244 358.788 348.821 359.613C351.862 363.959 354.916 368.295 357.984 372.621C358.635 373.542 359.286 374.463 359.957 375.411C361.212 377.187 362.471 378.961 363.735 380.731C364.294 381.524 364.853 382.316 365.43 383.133C365.927 383.833 366.425 384.533 366.937 385.254C368 387 368 387 368 389C362.611 389.299 357.227 389.515 351.832 389.659C350.001 389.719 348.17 389.801 346.342 389.905C331.231 390.745 331.231 390.745 326.004 386.656C323.662 383.553 321.827 380.427 320 377C318.752 375.185 317.481 373.386 316.184 371.605C314.933 369.801 313.684 367.995 312.438 366.188C311.043 364.174 309.648 362.161 308.254 360.148C307.198 358.622 307.198 358.622 306.122 357.065C302.714 352.142 299.295 347.227 295.875 342.312C295.212 341.359 294.549 340.406 293.865 339.423C287.834 330.754 281.779 322.101 275.718 313.452C272.81 309.302 269.905 305.151 267 301C265.833 299.333 264.667 297.667 263.5 296C256.5 286 249.5 276 242.5 266C241.923 265.175 241.345 264.35 240.75 263.501C239.582 261.832 238.414 260.163 237.246 258.493C234.355 254.363 231.463 250.234 228.57 246.105C221.683 236.275 214.817 226.43 207.966 216.574C201.902 207.853 195.813 199.15 189.718 190.452C186.81 186.302 183.905 182.151 181 178C179.833 176.333 178.667 174.667 177.5 173C175.167 169.667 172.833 166.333 170.5 163C169.921 162.174 169.343 161.347 168.747 160.496C167.591 158.844 166.434 157.192 165.279 155.54C162.204 151.146 159.126 146.755 156.043 142.367C155.398 141.448 154.753 140.529 154.088 139.582C152.844 137.81 151.599 136.04 150.354 134.27C149.797 133.477 149.241 132.684 148.668 131.867C148.176 131.167 147.684 130.467 147.177 129.746C146 128 146 128 145 126Z" fill="#020202"/>
</svg>
