<svg width="32" height="32" viewBox="0 0 32 32" fill="none" xmlns="http://www.w3.org/2000/svg">
<path d="M18.1868 17.1503C17.532 17.2977 16.8571 17.6949 16.2867 18.2681L15.9573 18.5997L15.6239 18.2558C14.9972 17.6089 14.3344 17.2609 13.5431 17.1626C12.4986 17.0357 11.3538 17.5393 10.699 18.4195C10.225 19.0623 10.008 19.7133 10 20.524C10 21.1913 10.0964 21.5967 10.4138 22.2722C10.7391 22.9519 11.1328 23.4718 11.9764 24.3357C13.053 25.433 14.2099 26.3706 15.5877 27.2549L15.9613 27.4965L16.5318 27.1075C18.9139 25.4739 20.7778 23.7461 21.4848 22.522C21.6696 22.1985 21.8423 21.7563 21.9307 21.3756C22.0231 20.9825 22.0231 20.1637 21.9307 19.7747C21.6254 18.5096 20.7015 17.4983 19.5526 17.1872C19.1991 17.0889 18.5323 17.0725 18.1868 17.1503Z" fill="#1E293B"/>
<path opacity="0.8" d="M30.5 11.5V29C30.5 29.8284 29.8284 30.5 29 30.5H3C2.17157 30.5 1.5 29.8284 1.5 29V11.5H30.5Z" stroke="#0F151F" stroke-width="3"/>
<path opacity="0.8" d="M30.5 10V5C30.5 3.34315 29.1569 2 27.5 2H4.5C2.84315 2 1.5 3.34315 1.5 5V10" stroke="#0F151F" stroke-width="3"/>
</svg>
